<?xml version="1.0" encoding="UTF-8"?>
<svg version="1.1" xmlns="http://www.w3.org/2000/svg" width="200" height="200">
<path d="M0 0 C66 0 132 0 200 0 C200 66 200 132 200 200 C134 200 68 200 0 200 C0 134 0 68 0 0 Z " fill="#FEFEFE" transform="translate(0,0)"/>
<path d="M0 0 C1.41035715 0.52502347 2.80755876 1.08706755 4.1875 1.6875 C6.11321642 2.56506701 6.11321642 2.56506701 8 3 C10.99992729 1.70855022 10.99992729 1.70855022 14 0 C18.04064043 -0.80218597 21.46725475 -0.88197073 25.09765625 1.20703125 C28.39665176 3.8828079 30.25592774 5.72158448 31 10 C32.32 10.33 33.64 10.66 35 11 C34.79503906 11.60328125 34.59007812 12.2065625 34.37890625 12.828125 C34.10949219 13.62734375 33.84007812 14.4265625 33.5625 15.25 C33.29566406 16.03890625 33.02882812 16.8278125 32.75390625 17.640625 C32.08045292 19.74821988 31.50849405 21.84753973 31 24 C29.68 24.33 28.36 24.66 27 25 C26.95875 25.7425 26.9175 26.485 26.875 27.25 C25.61857093 31.19877708 23.57000763 32.01666243 20 34 C18.783125 34.495 17.56625 34.99 16.3125 35.5 C13.01951945 36.99116101 11.79323175 37.9409576 10 41 C1.13550613 39.8799376 -7.52814202 31.82495329 -13 25 C-15.63752479 20.83176885 -17 17.99570888 -17 13 C-14.03 13 -11.06 13 -8 13 C-8 12.34 -8 11.68 -8 11 C-10.97 11 -13.94 11 -17 11 C-16.8882925 7.20194492 -15.64019694 5.25452751 -13 2.6875 C-8.80445366 -0.64148155 -5.18462153 -0.96541228 0 0 Z " fill="#FAE3E0" transform="translate(93,64)"/>
<path d="M0 0 C0.33 0 0.66 0 1 0 C1 2.97 1 5.94 1 9 C2.65 9 4.3 9 6 9 C6.33 7.02 6.66 5.04 7 3 C10.153368 2.29925156 12.72724974 2 16 2 C16.66 3.65 17.32 5.3 18 7 C18.99 5.35 19.98 3.7 21 2 C21.66 2.33 22.32 2.66 23 3 C24.67654729 2.72057545 26.34608154 2.39171753 28 2 C28.66 3.65 29.32 5.3 30 7 C28.02 7 26.04 7 24 7 C24 7.66 24 8.32 24 9 C24.94875 8.814375 25.8975 8.62875 26.875 8.4375 C30 8 30 8 32 9 C31.67 10.32 31.34 11.64 31 13 C30.34 13 29.68 13 29 13 C28.67 16.63 28.34 20.26 28 24 C24.66666667 24 21.33333333 24 18 24 C14.33792752 24.27203967 10.67897565 24.57363849 7.01953125 24.87890625 C6.02308594 24.91886719 5.02664062 24.95882812 4 25 C3.67 24.67 3.34 24.34 3 24 C1.33382885 23.95936168 -0.33388095 23.957279 -2 24 C-2 23.01 -2 22.02 -2 21 C-1.34 21 -0.68 21 0 21 C0 14.07 0 7.14 0 0 Z " fill="#F5ECEC" transform="translate(102,108)"/>
<path d="M0 0 C0.33 0.66 0.66 1.32 1 2 C1.99 2.33 2.98 2.66 4 3 C4 2.34 4 1.68 4 1 C4.66 1 5.32 1 6 1 C6 1.99 6 2.98 6 4 C6.61875 3.79375 7.2375 3.5875 7.875 3.375 C8.926875 3.189375 8.926875 3.189375 10 3 C12 5 12 5 12.125 8.625 C12.08375 9.73875 12.0425 10.8525 12 12 C11.34 12 10.68 12 10 12 C10 9.69 10 7.38 10 5 C9.01 5.33 8.02 5.66 7 6 C6.66551741 8.832168 6.66551741 8.832168 7 12 C7.66 12.598125 8.32 13.19625 9 13.8125 C11.40223751 16.43994728 11.27156758 17.29379552 11.25 20.75 C11.18597617 22.16767057 11.10884119 23.58506449 11 25 C10.34 25 9.68 25 9 25 C9 22.69 9 20.38 9 18 C8.01 18 7.02 18 6 18 C6 20.31 6 22.62 6 25 C5.34 25 4.68 25 4 25 C4 22.69 4 20.38 4 18 C3.01 18 2.02 18 1 18 C1 20.31 1 22.62 1 25 C-2.0534135 25.29359745 -4.95743422 25.4451258 -8 25 C-10.5625 22.5 -10.5625 22.5 -12 20 C-12.33 21.65 -12.66 23.3 -13 25 C-13.66 25 -14.32 25 -15 25 C-15.33 23.35 -15.66 21.7 -16 20 C-17.65 20 -19.3 20 -21 20 C-21 21.65 -21 23.3 -21 25 C-21.66 25 -22.32 25 -23 25 C-23 21.37 -23 17.74 -23 14 C-21.35 13.34 -19.7 12.68 -18 12 C-18 8.37 -18 4.74 -18 1 C-17.34 1.33 -16.68 1.66 -16 2 C-15.375 4.0625 -15.375 4.0625 -15 6 C-14.01 4.35 -13.02 2.7 -12 1 C-11.34 1.33 -10.68 1.66 -10 2 C-9.375 4.0625 -9.375 4.0625 -9 6 C-8.54625 5.195625 -8.0925 4.39125 -7.625 3.5625 C-5.23083706 -0.2129108 -4.57751518 0 0 0 Z " fill="#F1E7E8" transform="translate(85,107)"/>
<path d="M0 0 C1.50433594 0.01353516 1.50433594 0.01353516 3.0390625 0.02734375 C3.80992188 0.03894531 4.58078125 0.05054687 5.375 0.0625 C3.89434951 9.66990263 -3.19249365 16.34916468 -10.625 22.0625 C-15.23359729 25.0625 -15.23359729 25.0625 -17.625 25.0625 C-19.48327924 21.34594153 -19.06317875 17.1187833 -18.625 13.0625 C-14.94987992 5.41825023 -8.47556146 -0.09855304 0 0 Z " fill="#E57B12" transform="translate(118.625,77.9375)"/>
<path d="M0 0 C7.30340553 -0.38970741 11.97109238 -0.12630103 17.91796875 4.48828125 C21.3657942 7.70212254 22.86362468 9.87641221 23.44140625 14.63671875 C23.43788599 18.11825175 23.30678192 21.53287735 23 25 C17.88294099 23.68636694 14.6293031 21.33147073 10.875 17.75 C10.36324219 17.28464844 9.85148437 16.81929687 9.32421875 16.33984375 C4.26691646 11.62056166 0.675453 7.09225647 0 0 Z " fill="#891814" transform="translate(76,78)"/>
<path d="M0 0 C2.96912882 1.38980498 4.69657028 2.69657028 7 5 C7.265625 7.0234375 7.265625 7.0234375 7.25 9.375 C7.25515625 10.14585938 7.2603125 10.91671875 7.265625 11.7109375 C6.97688045 14.1992361 6.24139229 15.84234198 5 18 C1.592308 17.39148357 -0.2715551 16.06700371 -3 14 C-7.46794626 11.70219907 -12.068004 11.40831339 -17 11 C-16.8882925 7.20194492 -15.64019694 5.25452751 -13 2.6875 C-8.85030818 -0.62542269 -5.1399076 -0.99326545 0 0 Z " fill="#E70F06" transform="translate(93,64)"/>
<path d="M0 0 C2.89672363 1.5668152 5.01625456 3.37079709 7 6 C7.9375 9.375 7.9375 9.375 8 12 C7.2265625 12.00257812 6.453125 12.00515625 5.65625 12.0078125 C-1.22813039 12.26342068 -5.28517143 13.06616001 -10.37890625 17.8203125 C-11.18134766 18.40425781 -11.18134766 18.40425781 -12 19 C-12.99 18.67 -13.98 18.34 -15 18 C-14.96697069 15.55883375 -14.89985838 13.12681489 -14.8125 10.6875 C-14.80669922 9.99720703 -14.80089844 9.30691406 -14.79492188 8.59570312 C-14.70703125 6.57421875 -14.70703125 6.57421875 -14 3 C-9.78789899 -0.5979868 -5.31166561 -1.11490592 0 0 Z " fill="#6C0D14" transform="translate(116,64)"/>
<path d="M0 0 C2.32158065 -0.34659295 2.32158065 -0.34659295 4 -1 C3.67 0.32 3.34 1.64 3 3 C2.34 3 1.68 3 1 3 C0.67 6.63 0.34 10.26 0 14 C-3.33333333 14 -6.66666667 14 -10 14 C-13.5965992 14.31055816 -17.19116239 14.6371507 -20.78515625 14.9765625 C-24 15 -24 15 -27 13 C-26.67 9.7 -26.34 6.4 -26 3 C-25.67 3 -25.34 3 -25 3 C-24.34 5.97 -23.68 8.94 -23 12 C-21.35 12.33 -19.7 12.66 -18 13 C-17.67 12.34 -17.34 11.68 -17 11 C-18.65 11.33 -20.3 11.66 -22 12 C-22 11.34 -22 10.68 -22 10 C-20.35 10 -18.7 10 -17 10 C-17.33 8.35 -17.66 6.7 -18 5 C-16.02 4.67 -14.04 4.34 -12 4 C-11.67 2.68 -11.34 1.36 -11 0 C-7.16615843 -1.38018297 -3.95778601 -0.565398 0 0 Z " fill="#FDEAE8" transform="translate(130,118)"/>
<path d="M0 0 C2.89812088 1.56466267 5.0162197 3.37075088 7 6 C7.9375 9.375 7.9375 9.375 8 12 C7.2265625 12.00257812 6.453125 12.00515625 5.65625 12.0078125 C-1.22813039 12.26342068 -5.28517143 13.06616001 -10.37890625 17.8203125 C-11.18134766 18.40425781 -11.18134766 18.40425781 -12 19 C-12.99 18.67 -13.98 18.34 -15 18 C-14.67 14.37 -14.34 10.74 -14 7 C-13.67 7.66 -13.34 8.32 -13 9 C-10.98330173 10.13350534 -10.98330173 10.13350534 -9 11 C-9.33 11.99 -9.66 12.98 -10 14 C-9.34 14 -8.68 14 -8 14 C-8 13.34 -8 12.68 -8 12 C-3.05 10.515 -3.05 10.515 2 9 C2 8.01 2 7.02 2 6 C2 5.01 2 4.02 2 3 C-1.3 2.34 -4.6 1.68 -8 1 C-8 1.66 -8 2.32 -8 3 C-9.65 3 -11.3 3 -13 3 C-9.31827643 -0.84179851 -4.98587719 -1.03069394 0 0 Z " fill="#70242C" transform="translate(116,64)"/>
<path d="M0 0 C0.33 0 0.66 0 1 0 C1 2.97 1 5.94 1 9 C2.65 9 4.3 9 6 9 C6.33 9.99 6.66 10.98 7 12 C6.67 12.66 6.34 13.32 6 14 C7.32 14 8.64 14 10 14 C10.33 15.98 10.66 17.96 11 20 C9.35 20 7.7 20 6 20 C6 20.66 6 21.32 6 22 C7.65 21.67 9.3 21.34 11 21 C10.67 21.99 10.34 22.98 10 24 C7.625 23.8125 7.625 23.8125 5 23 C3.6875 20.4375 3.6875 20.4375 3 18 C2.34 19.98 1.68 21.96 1 24 C0.01 24 -0.98 24 -2 24 C-2 23.01 -2 22.02 -2 21 C-1.34 21 -0.68 21 0 21 C0 14.07 0 7.14 0 0 Z " fill="#C7ACAB" transform="translate(102,108)"/>
<path d="M0 0 C1.65 0 3.3 0 5 0 C5.33 0.99 5.66 1.98 6 3 C4.68 3 3.36 3 2 3 C3.32 3.33 4.64 3.66 6 4 C6.33 2.68 6.66 1.36 7 0 C7.99 0 8.98 0 10 0 C10 2.31 10 4.62 10 7 C10.66 6.67 11.32 6.34 12 6 C12.65772428 2.97065509 12.65772428 2.97065509 13 0 C13.66 0 14.32 0 15 0 C15 2.97 15 5.94 15 9 C3.7 9 3.7 9 0 8 C-0.33 7.34 -0.66 6.68 -1 6 C1.475 6.495 1.475 6.495 4 7 C4 6.34 4 5.68 4 5 C2.35 4.67 0.7 4.34 -1 4 C-0.67 2.68 -0.34 1.36 0 0 Z " fill="#C55450" transform="translate(115,123)"/>
<path d="M0 0 C0.66 0 1.32 0 2 0 C2 0.99 2 1.98 2 3 C2.928125 2.690625 2.928125 2.690625 3.875 2.375 C4.926875 2.189375 4.926875 2.189375 6 2 C8 4 8 4 8.125 7.625 C8.08375 8.73875 8.0425 9.8525 8 11 C7.34 11 6.68 11 6 11 C6 8.69 6 6.38 6 4 C5.01 4.33 4.02 4.66 3 5 C2.67 6.98 2.34 8.96 2 11 C0.33388095 11.042721 -1.33382885 11.04063832 -3 11 C-4 10 -4 10 -4.09765625 7.93359375 C-4.08605469 7.10988281 -4.07445313 6.28617187 -4.0625 5.4375 C-4.05347656 4.61121094 -4.04445313 3.78492187 -4.03515625 2.93359375 C-4.02355469 2.29550781 -4.01195313 1.65742187 -4 1 C-2.68 1.33 -1.36 1.66 0 2 C0 1.34 0 0.68 0 0 Z " fill="#A88F91" transform="translate(89,108)"/>
<path d="M0 0 C0.66 0.33 1.32 0.66 2 1 C3.67654729 0.72057545 5.34608154 0.39171753 7 0 C7.66 1.65 8.32 3.3 9 5 C7.02 5 5.04 5 3 5 C3 5.66 3 6.32 3 7 C4.98 6.67 6.96 6.34 9 6 C8.01 7.485 8.01 7.485 7 9 C5.39125 8.7215625 5.39125 8.7215625 3.75 8.4375 C-0.07210322 7.76775571 -0.07210322 7.76775571 -4 9 C-4.66 6.36 -5.32 3.72 -6 1 C-5.01 1.495 -5.01 1.495 -4 2 C-3.67 2.99 -3.34 3.98 -3 5 C-2.01 3.35 -1.02 1.7 0 0 Z " fill="#A08284" transform="translate(123,110)"/>
<path d="M0 0 C1.32 0.33 2.64 0.66 4 1 C3.79503906 1.60328125 3.59007813 2.2065625 3.37890625 2.828125 C3.10949219 3.62734375 2.84007813 4.4265625 2.5625 5.25 C2.29566406 6.03890625 2.02882813 6.8278125 1.75390625 7.640625 C1.08045292 9.74821988 0.50849405 11.84753973 0 14 C-1.32 14.33 -2.64 14.66 -4 15 C-4.04125 15.7425 -4.0825 16.485 -4.125 17.25 C-5.34857383 21.09551776 -7.59346582 22.04305483 -11 24 C-11.66 23.67 -12.32 23.34 -13 23 C-12.56429687 22.63390625 -12.12859375 22.2678125 -11.6796875 21.890625 C-6.03445021 16.7585911 -3.09523408 10.90475295 0 4 C-3.3 3.67 -6.6 3.34 -10 3 C-10 2.67 -10 2.34 -10 2 C-6.7 2 -3.4 2 0 2 C0 1.34 0 0.68 0 0 Z " fill="#FDF5E7" transform="translate(124,74)"/>
<path d="M0 0 C0.77772405 2.33317216 1.42415568 4.61435923 2 7 C1.01 7.33 0.02 7.66 -1 8 C-0.67 9.98 -0.34 11.96 0 14 C-3.75 15.125 -3.75 15.125 -6 14 C-6.42230545 9.3546401 -5.09705016 6.1164318 -3 2 C-2.01 1.34 -1.02 0.68 0 0 Z " fill="#E9770B" transform="translate(107,84)"/>
<path d="M0 0 C0.99 0.495 0.99 0.495 2 1 C2.625 3.0625 2.625 3.0625 3 5 C3.99 3.35 4.98 1.7 6 0 C6.66 0.33 7.32 0.66 8 1 C8.625 3.0625 8.625 3.0625 9 5 C9.99 3.35 10.98 1.7 12 0 C13.13643966 3.40931897 12.86747764 4.00335456 11.5625 7.1875 C11.27503906 7.90292969 10.98757812 8.61835937 10.69140625 9.35546875 C10.46324219 9.89816406 10.23507813 10.44085938 10 11 C7.2160817 9.60804085 7.02101003 7.84424221 6 5 C5.67 6.65 5.34 8.3 5 10 C4.01 10 3.02 10 2 10 C1.34 6.7 0.68 3.4 0 0 Z " fill="#87646A" transform="translate(67,108)"/>
<path d="M0 0 C2.625 0.375 2.625 0.375 5 1 C5.625 3.3125 5.625 3.3125 6 6 C5.01 7.485 5.01 7.485 4 9 C-0.875 8.125 -0.875 8.125 -2 7 C-2.1875 4.5625 -2.1875 4.5625 -2 2 C-1.34 1.34 -0.68 0.68 0 0 Z " fill="#866C70" transform="translate(77,123)"/>
<path d="M0 0 C1.28132813 0.00902344 2.56265625 0.01804688 3.8828125 0.02734375 C4.87023437 0.03894531 5.85765625 0.05054688 6.875 0.0625 C7.535 1.3825 8.195 2.7025 8.875 4.0625 C8.235625 3.7325 7.59625 3.4025 6.9375 3.0625 C2.81844032 1.71750092 -0.83650679 1.32258392 -5.125 2.0625 C-8.66759005 3.87882795 -10.74466767 6.28454752 -12.5 9.875 C-12.70625 10.596875 -12.9125 11.31875 -13.125 12.0625 C-10.155 12.0625 -7.185 12.0625 -4.125 12.0625 C-4.125 12.3925 -4.125 12.7225 -4.125 13.0625 C-7.425 13.0625 -10.725 13.0625 -14.125 13.0625 C-13.63438967 5.70334507 -13.63438967 5.70334507 -11.1875 2.625 C-7.36266314 -0.27260368 -4.77478935 -0.04340718 0 0 Z " fill="#FCD3CF" transform="translate(89.125,62.9375)"/>
<path d="M0 0 C0.33 0 0.66 0 1 0 C1.66 2.97 2.32 5.94 3 9 C4.65 9.33 6.3 9.66 8 10 C8.33 9.34 8.66 8.68 9 8 C7.35 8.33 5.7 8.66 4 9 C4 8.34 4 7.68 4 7 C5.65 7 7.3 7 9 7 C9.33 6.34 9.66 5.68 10 5 C12.475 5.99 12.475 5.99 15 7 C15 7.66 15 8.32 15 9 C13.68 9 12.36 9 11 9 C11.33 9.66 11.66 10.32 12 11 C8.47005387 12.17664871 5.70544587 12.19850603 2 12 C1.01 11.34 0.02 10.68 -1 10 C-0.67 6.7 -0.34 3.4 0 0 Z " fill="#FAC8C3" transform="translate(104,121)"/>
<path d="M0 0 C1 1 1 1 1.1875 3.4375 C1 6 1 6 -1 8 C-3.625 7.625 -3.625 7.625 -6 7 C-6 4.69 -6 2.38 -6 0 C-3.49749232 -1.25125384 -2.59701335 -0.83774624 0 0 Z " fill="#826064" transform="translate(115,111)"/>
<path d="M0 0 C0.99 0.66 1.98 1.32 3 2 C3.36328125 4.0234375 3.36328125 4.0234375 3.3125 6.375 C3.30863281 7.14585938 3.30476563 7.91671875 3.30078125 8.7109375 C2.97634488 11.18002469 2.23105029 12.85179272 1 15 C-2.407692 14.39148357 -4.2715551 13.06700371 -7 11 C-8.64797236 10.28837557 -10.31165408 9.60968047 -12 9 C-12 8.67 -12 8.34 -12 8 C-9 8 -6 8 -3 8 C-2.67 9.32 -2.34 10.64 -2 12 C-1.01 12 -0.02 12 1 12 C1.02712066 10.56260487 1.04645067 9.12506137 1.0625 7.6875 C1.07410156 6.88699219 1.08570312 6.08648437 1.09765625 5.26171875 C1.09657855 2.83138666 1.09657855 2.83138666 0 0 Z " fill="#CF2521" transform="translate(97,67)"/>
<path d="M0 0 C2.625 0.375 2.625 0.375 5 1 C5 2.32 5 3.64 5 5 C3.35 5 1.7 5 0 5 C0 5.66 0 6.32 0 7 C1.65 6.67 3.3 6.34 5 6 C4.67 6.99 4.34 7.98 4 9 C-0.875 8.125 -0.875 8.125 -2 7 C-2.1875 4.5625 -2.1875 4.5625 -2 2 C-1.34 1.34 -0.68 0.68 0 0 Z " fill="#C03D39" transform="translate(108,123)"/>
<path d="M0 0 C0 0.33 0 0.66 0 1 C-0.62648438 1.10957031 -1.25296875 1.21914062 -1.8984375 1.33203125 C-2.71570313 1.49058594 -3.53296875 1.64914063 -4.375 1.8125 C-5.59316406 2.03873047 -5.59316406 2.03873047 -6.8359375 2.26953125 C-9.35820641 2.87544942 -9.35820641 2.87544942 -11 6 C-11.99 6 -12.98 6 -14 6 C-14 7.32 -14 8.64 -14 10 C-12.35 10 -10.7 10 -9 10 C-9 10.33 -9 10.66 -9 11 C-11.64 11 -14.28 11 -17 11 C-16.8882925 7.20194492 -15.64019694 5.25452751 -13 2.6875 C-8.85351954 -0.68313172 -5.1422041 -0.62965765 0 0 Z " fill="#CF2423" transform="translate(93,64)"/>
<path d="M0 0 C0.99 0.33 1.98 0.66 3 1 C3 5.62 3 10.24 3 15 C4.32 14.67 5.64 14.34 7 14 C6.01 15.485 6.01 15.485 5 17 C3.35 16.67 1.7 16.34 0 16 C0 10.72 0 5.44 0 0 Z " fill="#FBE9D4" transform="translate(98,88)"/>
<path d="M0 0 C1.65 0.33 3.3 0.66 5 1 C5 1.66 5 2.32 5 3 C4.01 3 3.02 3 2 3 C3.32 3.66 4.64 4.32 6 5 C5.34 6.32 4.68 7.64 4 9 C1.5625 8.625 1.5625 8.625 -1 8 C-1.33 7.34 -1.66 6.68 -2 6 C0.475 6.495 0.475 6.495 3 7 C3 6.34 3 5.68 3 5 C1.68 4.67 0.36 4.34 -1 4 C-0.67 2.68 -0.34 1.36 0 0 Z " fill="#BF3F3D" transform="translate(133,123)"/>
<path d="M0 0 C1.40907283 2.81814566 0.50872691 4.17277204 -0.4375 7.125 C-0.72496094 8.03507812 -1.01242188 8.94515625 -1.30859375 9.8828125 C-1.53675781 10.58148438 -1.76492187 11.28015625 -2 12 C0.97 12.495 0.97 12.495 4 13 C2.71034824 14.37562854 1.37310707 15.70766393 0 17 C-0.66 17 -1.32 17 -2 17 C-3.8382537 13.32349261 -3.37884188 9.02203801 -3 5 C-1.5 1.875 -1.5 1.875 0 0 Z " fill="#D98B3C" transform="translate(103,86)"/>
<path d="M0 0 C0.4125 0.495 0.825 0.99 1.25 1.5 C2.24 2.16 3.23 2.82 4.25 3.5 C3.59 3.5 2.93 3.5 2.25 3.5 C1.92 4.16 1.59 4.82 1.25 5.5 C0.528125 4.71625 -0.19375 3.9325 -0.9375 3.125 C-5.6351121 -0.89015029 -11.82540551 -0.91105663 -17.75 -1.5 C-17.75 -1.83 -17.75 -2.16 -17.75 -2.5 C-11.50612916 -3.54772436 -5.19682626 -4.45442251 0 0 Z " fill="#ECC4BE" transform="translate(93.75,79.5)"/>
<path d="M0 0 C1.32 0 2.64 0 4 0 C4 1.65 4 3.3 4 5 C3.34 5 2.68 5 2 5 C2 7.31 2 9.62 2 12 C1.34 12 0.68 12 0 12 C-0.144375 11.05125 -0.28875 10.1025 -0.4375 9.125 C-0.82935399 6.1065506 -0.82935399 6.1065506 -2 4 C-1.0625 1.875 -1.0625 1.875 0 0 Z " fill="#C6B2B5" transform="translate(81,107)"/>
<path d="M0 0 C0 0.33 0 0.66 0 1 C-0.8353125 1.00386719 -0.8353125 1.00386719 -1.6875 1.0078125 C-8.45139665 1.35057753 -11.92733368 3.71803706 -17 8 C-17.99 8.495 -17.99 8.495 -19 9 C-19.33 8.01 -19.66 7.02 -20 6 C-13.25008492 0.2410299 -8.81734296 -2.2324762 0 0 Z " fill="#F6DCC5" transform="translate(122,77)"/>
<path d="M0 0 C2.375 -0.125 2.375 -0.125 5 0 C7 2 7 2 7.125 5.625 C7.08375 6.73875 7.0425 7.8525 7 9 C6.34 9 5.68 9 5 9 C5 6.69 5 4.38 5 2 C4.01 2 3.02 2 2 2 C2 3.98 2 5.96 2 8 C1.34 8 0.68 8 0 8 C0 5.36 0 2.72 0 0 Z " fill="#9C7C81" transform="translate(84,123)"/>
<path d="M0 0 C0.66 0 1.32 0 2 0 C2 2.97 2 5.94 2 9 C0.00045254 9.04254356 -2.00041636 9.04080783 -4 9 C-5 8 -5 8 -5.0625 4.4375 C-5.041875 3.303125 -5.02125 2.16875 -5 1 C-4.67 1 -4.34 1 -4 1 C-3.67 2.65 -3.34 4.3 -3 6 C-2.34 6 -1.68 6 -1 6 C-0.67 4.02 -0.34 2.04 0 0 Z " fill="#C23D37" transform="translate(128,123)"/>
<path d="M0 0 C2 3 2 3 2 7 C-1 9 -1 9 -4 9 C-4.66 6.36 -5.32 3.72 -6 1 C-5.01 1.495 -5.01 1.495 -4 2 C-3.67 2.99 -3.34 3.98 -3 5 C-2.01 3.35 -1.02 1.7 0 0 Z " fill="#A88B90" transform="translate(123,110)"/>
<path d="M0 0 C2.31 0 4.62 0 7 0 C7 0.33 7 0.66 7 1 C5.35 1 3.7 1 2 1 C2 2.32 2 3.64 2 5 C3.65 5 5.3 5 7 5 C7 5.33 7 5.66 7 6 C5.35 6 3.7 6 2 6 C2 7.65 2 9.3 2 11 C1.34 11 0.68 11 0 11 C0 7.37 0 3.74 0 0 Z " fill="#8B6A6F" transform="translate(62,121)"/>
<path d="M0 0 C1.32 0.33 2.64 0.66 4 1 C2.92492371 2.29854721 1.83956264 3.58858361 0.75 4.875 C0.14671875 5.59429687 -0.4565625 6.31359375 -1.078125 7.0546875 C-2.97087634 8.97052118 -4.53657727 9.96449045 -7 11 C-7 10.01 -7 9.02 -7 8 C-6.01 8 -5.02 8 -4 8 C-4 7.01 -4 6.02 -4 5 C-3.01 5 -2.02 5 -1 5 C-0.67 3.35 -0.34 1.7 0 0 Z " fill="#DB842D" transform="translate(116,87)"/>
<path d="M0 0 C1 2 1 2 -0.0625 5.375 C-1.86015752 9.39872874 -4.20582043 10.89212246 -8 13 C-8.66 12.67 -9.32 12.34 -10 12 C-9.52949219 11.55269531 -9.05898437 11.10539062 -8.57421875 10.64453125 C-5.14923351 7.31882095 -2.21128342 4.29249134 0 0 Z " fill="#FDEACD" transform="translate(121,85)"/>
<path d="M0 0 C0.99 0.33 1.98 0.66 3 1 C3 1.99 3 2.98 3 4 C3.99 4.33 4.98 4.66 6 5 C6 5.66 6 6.32 6 7 C4.68 7 3.36 7 2 7 C2.33 7.66 2.66 8.32 3 9 C2.01 9 1.02 9 0 9 C0 6.03 0 3.06 0 0 Z " fill="#F7C6C1" transform="translate(130,123)"/>
<path d="M0 0 C0.66 0 1.32 0 2 0 C2 3.3 2 6.6 2 10 C0.68 10.33 -0.64 10.66 -2 11 C-2 10.01 -2 9.02 -2 8 C-1.34 8 -0.68 8 0 8 C0 5.36 0 2.72 0 0 Z " fill="#C7413C" transform="translate(102,121)"/>
<path d="M0 0 C0.99 0 1.98 0 3 0 C3.125 5.75 3.125 5.75 2 8 C1.01 7.67 0.02 7.34 -1 7 C-1.04254356 5.00045254 -1.04080783 2.99958364 -1 1 C-0.67 0.67 -0.34 0.34 0 0 Z " fill="#FDF3F4" transform="translate(92,112)"/>
<path d="M0 0 C7.66742597 5.96583144 7.66742597 5.96583144 9 11 C8.34 11 7.68 11 7 11 C5.2734375 9.1015625 5.2734375 9.1015625 3.375 6.625 C2.42753906 5.40683594 2.42753906 5.40683594 1.4609375 4.1640625 C0 2 0 2 0 0 Z " fill="#842223" transform="translate(90,80)"/>
<path d="M0 0 C0.99 1.32 1.98 2.64 3 4 C2.67 4.66 2.34 5.32 2 6 C-0.31 5.67 -2.62 5.34 -5 5 C-4 2 -4 2 -1.9375 0.8125 C-1.298125 0.544375 -0.65875 0.27625 0 0 Z " fill="#FDF6F3" transform="translate(135,118)"/>
<path d="M0 0 C0.66 0.33 1.32 0.66 2 1 C0.68 3.31 -0.64 5.62 -2 8 C-2.66 7.67 -3.32 7.34 -4 7 C-4.99 6.67 -5.98 6.34 -7 6 C-4.69 4.02 -2.38 2.04 0 0 Z " fill="#DC812A" transform="translate(111,79)"/>
<path d="M0 0 C1.32 0 2.64 0 4 0 C4 1.65 4 3.3 4 5 C2.35 4.67 0.7 4.34 -1 4 C-0.67 2.68 -0.34 1.36 0 0 Z " fill="#FAECEF" transform="translate(77,125)"/>
<path d="M0 0 C2.475 0.495 2.475 0.495 5 1 C4.67 2.32 4.34 3.64 4 5 C2.68 5 1.36 5 0 5 C0 3.35 0 1.7 0 0 Z " fill="#FBEFF0" transform="translate(110,112)"/>
<path d="M0 0 C1.95582488 2.93373731 3.56224304 5.78216298 5 9 C4.67 9.66 4.34 10.32 4 11 C1.5 9.625 1.5 9.625 -1 8 C-1 7.34 -1 6.68 -1 6 C-0.34 6 0.32 6 1 6 C0.67 4.02 0.34 2.04 0 0 Z " fill="#F9ECE8" transform="translate(75,78)"/>
<path d="M0 0 C1.32 0 2.64 0 4 0 C4 0.66 4 1.32 4 2 C3.34 2 2.68 2 2 2 C2 4.31 2 6.62 2 9 C1.34 9 0.68 9 0 9 C0 6.03 0 3.06 0 0 Z " fill="#A08287" transform="translate(70,123)"/>
<path d="M0 0 C0.99 1.485 0.99 1.485 2 3 C3.65 2.67 5.3 2.34 7 2 C6.67 3.65 6.34 5.3 6 7 C4.35 6.67 2.7 6.34 1 6 C0.67 4.02 0.34 2.04 0 0 Z " fill="#64141A" transform="translate(102,67)"/>
<path d="M0 0 C2 2 2 2 2.1953125 4.3828125 C2.17210938 5.28773437 2.14890625 6.19265625 2.125 7.125 C2.10695313 8.03507812 2.08890625 8.94515625 2.0703125 9.8828125 C2.03550781 10.93082031 2.03550781 10.93082031 2 12 C1.01 11.67 0.02 11.34 -1 11 C-0.67 7.37 -0.34 3.74 0 0 Z " fill="#7E3C3C" transform="translate(102,71)"/>
<path d="M0 0 C0.99 0 1.98 0 3 0 C3 2.64 3 5.28 3 8 C1 7 1 7 0 6 C-0.04080783 4.00041636 -0.04254356 1.99954746 0 0 Z " fill="#FEF5F4" transform="translate(91,125)"/>
<path d="M0 0 C0.66 0.33 1.32 0.66 2 1 C1.34 2.32 0.68 3.64 0 5 C-2.4375 4.625 -2.4375 4.625 -5 4 C-5.33 3.34 -5.66 2.68 -6 2 C-3.525 2.495 -3.525 2.495 -1 3 C-0.67 2.01 -0.34 1.02 0 0 Z " fill="#C34A4C" transform="translate(137,127)"/>
<path d="M0 0 C2.475 0.495 2.475 0.495 5 1 C5 1.99 5 2.98 5 4 C3.35 4 1.7 4 0 4 C0 2.68 0 1.36 0 0 Z " fill="#CB6160" transform="translate(108,123)"/>
<path d="M0 0 C-0.33 1.32 -0.66 2.64 -1 4 C-2.65 4.33 -4.3 4.66 -6 5 C-6 4.01 -6 3.02 -6 2 C-3 0 -3 0 0 0 Z " fill="#DFD1D1" transform="translate(134,117)"/>
<path d="M0 0 C1.7074998 1.28062485 3.37373596 2.61767557 5 4 C5 4.66 5 5.32 5 6 C3.68 5.67 2.36 5.34 1 5 C1 4.34 1 3.68 1 3 C0.01 2.67 -0.98 2.34 -2 2 C-1.34 1.34 -0.68 0.68 0 0 Z " fill="#F5F6F5" transform="translate(84,104)"/>
<path d="M0 0 C2.97 0.495 2.97 0.495 6 1 C4.71034824 2.37562854 3.37310707 3.70766393 2 5 C1.34 5 0.68 5 0 5 C0 3.35 0 1.7 0 0 Z " fill="#D68025" transform="translate(101,98)"/>
<path d="M0 0 C0.33 0 0.66 0 1 0 C1 1.65 1 3.3 1 5 C2.65 5 4.3 5 6 5 C6 5.33 6 5.66 6 6 C3.36 6 0.72 6 -2 6 C-1.125 1.125 -1.125 1.125 0 0 Z " fill="#CB2F2B" transform="translate(78,69)"/>
<path d="M0 0 C1.32 0 2.64 0 4 0 C6.17457267 2.87354245 7 4.36436591 7 8 C5.83035398 6.8572081 4.66435444 5.71068285 3.5 4.5625 C2.8503125 3.92441406 2.200625 3.28632812 1.53125 2.62890625 C0 1 0 1 0 0 Z " fill="#7F1E1D" transform="translate(81,89)"/>
</svg>
