<svg xmlns="http://www.w3.org/2000/svg" width="200" height="200"><path fill="#FEFEFE" d="M0 0h200v200H0z"/><path fill="#FAE3E0" d="M93 64a84 84 0 0 1 4.188 1.688c1.925.877 1.925.877 3.812 1.312 3-1.291 3-1.291 6-3 4.04-.802 7.467-.882 11.098 1.207 3.299 2.676 5.158 4.515 5.902 8.793l4 1-.621 1.828-.817 2.422-.808 2.39A85 85 0 0 0 124 88l-4 1-.125 2.25c-1.256 3.949-3.305 4.767-6.875 6.75l-3.687 1.5c-3.293 1.491-4.52 2.441-6.313 5.5-8.864-1.12-17.528-9.175-23-16-2.638-4.168-4-7.004-4-12h9v-2h-9c.112-3.798 1.36-5.745 4-8.312 4.196-3.33 7.815-3.653 13-2.688"/><path fill="#F5ECEC" d="M102 108h1v9h5l1-6c3.153-.7 5.727-1 9-1l2 5 3-5 2 1a76 76 0 0 0 5-1l2 5h-6v2l2.875-.562C132 116 132 116 134 117l-1 4h-2l-1 11h-10c-3.662.272-7.321.574-10.98.879L106 133l-1-1a100 100 0 0 0-5 0v-3h2z"/><path fill="#F1E7E8" d="m85 107 1 2 3 1v-2h2v3l1.875-.625L95 110c2 2 2 2 2.125 5.625L97 119h-2v-7l-3 1c-.334 2.832-.334 2.832 0 6l2 1.813c2.402 2.627 2.272 3.48 2.25 6.937A135 135 0 0 1 96 132h-2v-7h-3v7h-2v-7h-3v7c-3.053.294-5.957.445-9 0-2.562-2.5-2.562-2.5-4-5l-1 5h-2l-1-5h-5v5h-2v-11l5-2v-11l2 1c.625 2.063.625 2.063 1 4l3-5 2 1c.625 2.063.625 2.063 1 4l1.375-2.437C79.769 106.787 80.422 107 85 107"/><path fill="#E57B12" d="m118.625 77.938 3.04.027L124 78c-1.48 9.607-8.567 16.287-16 22-4.609 3-4.609 3-7 3-1.858-3.717-1.438-7.944-1-12 3.675-7.644 10.15-13.161 18.625-13.062"/><path fill="#891814" d="M76 78c7.303-.39 11.971-.126 17.918 4.488 3.448 3.214 4.946 5.388 5.523 10.149A118 118 0 0 1 99 103c-5.117-1.314-8.37-3.669-12.125-7.25-.512-.465-1.024-.93-1.55-1.41C80.266 89.62 76.674 85.092 76 78"/><path fill="#E70F06" d="M93 64c2.97 1.39 4.697 2.697 7 5 .266 2.023.266 2.023.25 4.375l.016 2.336C99.976 78.199 99.24 79.842 98 82c-3.408-.609-5.272-1.933-8-4-4.468-2.298-9.068-2.592-14-3 .112-3.798 1.36-5.745 4-8.312 4.15-3.313 7.86-3.681 13-2.688"/><path fill="#6C0D14" d="M116 64c2.897 1.567 5.016 3.37 7 6 .938 3.375.938 3.375 1 6l-2.344.008c-6.884.255-10.941 1.058-16.035 5.812L104 83l-3-1c.033-2.441.1-4.873.188-7.312l.017-2.092c.088-2.022.088-2.022.795-5.596 4.212-3.598 8.688-4.115 14-3"/><path fill="#FDEAE8" d="M130 118c2.322-.347 2.322-.347 4-1l-1 4h-2l-1 11h-10q-5.395.466-10.785.977C106 133 106 133 103 131l1-10h1l2 9 5 1 1-2-5 1v-2h5l-1-5 6-1 1-4c3.834-1.38 7.042-.565 11 0"/><path fill="#70242C" d="M116 64c2.898 1.565 5.016 3.37 7 6 .938 3.375.938 3.375 1 6l-2.344.008c-6.884.255-10.941 1.058-16.035 5.812L104 83l-3-1 1-11 1 2c2.017 1.134 2.017 1.134 4 2l-1 3h2v-2l10-3v-6l-10-2v2h-5c3.682-3.842 8.014-4.03 13-3"/><path fill="#C7ACAB" d="M102 108h1v9h5l1 3-1 2h4l1 6h-5v2l5-1-1 3c-2.375-.187-2.375-.187-5-1-1.312-2.562-1.312-2.562-2-5l-2 6h-3v-3h2z"/><path fill="#C55450" d="M115 123h5l1 3h-4l4 1 1-4h3v7l2-1c.658-3.03.658-3.03 1-6h2v9c-11.3 0-11.3 0-15-1l-1-2 5 1v-2l-5-1z"/><path fill="#A88F91" d="M89 108h2v3l1.875-.625L95 110c2 2 2 2 2.125 5.625L97 119h-2v-7l-3 1-1 6c-1.666.043-3.334.04-5 0-1-1-1-1-1.098-3.066l.035-2.496.028-2.504L85 109l4 1z"/><path fill="#A08284" d="m123 110 2 1a76 76 0 0 0 5-1l2 5h-6v2l6-1-2 3-3.25-.562c-3.822-.67-3.822-.67-7.75.562l-2-8 2 1 1 3z"/><path fill="#FDF5E7" d="m124 74 4 1-.621 1.828-.817 2.422-.808 2.39A85 85 0 0 0 124 88l-4 1-.125 2.25c-1.224 3.846-3.468 4.793-6.875 6.75l-2-1 1.32-1.11C117.966 90.76 120.905 84.906 124 78l-10-1v-1h10z"/><path fill="#E9770B" d="M107 84a85 85 0 0 1 2 7l-3 1 1 6c-3.75 1.125-3.75 1.125-6 0-.422-4.645.903-7.884 3-12z"/><path fill="#87646A" d="m67 108 2 1c.625 2.063.625 2.063 1 4l3-5 2 1c.625 2.063.625 2.063 1 4l3-5c1.136 3.41.867 4.003-.437 7.188l-.872 2.167L77 119c-2.784-1.392-2.979-3.156-4-6l-1 5h-3z"/><path fill="#866C70" d="M77 123c2.625.375 2.625.375 5 1 .625 2.313.625 2.313 1 5l-2 3c-4.875-.875-4.875-.875-6-2-.187-2.437-.187-2.437 0-5z"/><path fill="#FCD3CF" d="m89.125 62.938 3.883.027L96 63l2 4-1.937-1c-4.12-1.345-7.775-1.74-12.063-1-3.543 1.816-5.62 4.222-7.375 7.813L76 75h9v1H75c.49-7.36.49-7.36 2.938-10.437 3.824-2.898 6.412-2.669 11.187-2.626"/><path fill="#FAC8C3" d="M104 121h1l2 9 5 1 1-2-5 1v-2h5l1-2 5 2v2h-4l1 2c-3.53 1.177-6.295 1.199-10 1l-3-2z"/><path fill="#826064" d="M115 111c1 1 1 1 1.188 3.438C116 117 116 117 114 119c-2.625-.375-2.625-.375-5-1v-7c2.503-1.251 3.403-.838 6 0"/><path fill="#CF2521" d="m97 67 3 2c.363 2.023.363 2.023.313 4.375l-.012 2.336C99.976 78.18 99.23 79.85 98 82c-3.408-.609-5.272-1.933-8-4a88 88 0 0 0-5-2v-1h9l1 4h3q.039-2.156.063-4.312l.035-2.426c-.001-2.43-.001-2.43-1.098-5.262"/><path fill="#C03D39" d="M108 123c2.625.375 2.625.375 5 1v4h-5v2l5-1-1 3c-4.875-.875-4.875-.875-6-2-.187-2.437-.187-2.437 0-5z"/><path fill="#CF2423" d="M93 64v1l-1.898.332-2.477.48-2.46.458c-2.523.605-2.523.605-4.165 3.73h-3v4h5v1h-8c.112-3.798 1.36-5.745 4-8.312 4.146-3.371 7.858-3.318 13-2.688"/><path fill="#FBE9D4" d="m98 88 3 1v14l4-1-2 3-5-1z"/><path fill="#BF3F3D" d="m133 123 5 1v2h-3l4 2-2 4c-2.437-.375-2.437-.375-5-1l-1-2 5 1v-2l-4-1z"/><path fill="#D98B3C" d="M103 86c1.41 2.818.509 4.173-.437 7.125l-.872 2.758L101 98l6 1a91 91 0 0 1-4 4h-2c-1.838-3.677-1.379-7.978-1-12 1.5-3.125 1.5-3.125 3-5"/><path fill="#ECC4BE" d="M93.75 79.5 95 81l3 2h-2l-1 2-2.187-2.375C88.114 78.61 81.925 78.589 76 78v-1c6.244-1.048 12.553-1.954 17.75 2.5"/><path fill="#C6B2B5" d="M81 107h4v5h-2v7h-2l-.437-2.875c-.392-3.018-.392-3.018-1.563-5.125.938-2.125.938-2.125 2-4"/><path fill="#F6DCC5" d="M122 77v1l-1.687.008c-6.764.343-10.24 2.71-15.313 6.992l-2 1-1-3c6.75-5.759 11.183-8.232 20-6"/><path fill="#9C7C81" d="M84 123c2.375-.125 2.375-.125 5 0 2 2 2 2 2.125 5.625L91 132h-2v-7h-3v6h-2z"/><path fill="#C23D37" d="M128 123h2v9c-2 .043-4 .04-6 0-1-1-1-1-1.062-4.562L123 124h1l1 5h2z"/><path fill="#A88B90" d="M123 110c2 3 2 3 2 7-3 2-3 2-6 2l-2-8 2 1 1 3z"/><path fill="#8B6A6F" d="M62 121h7v1h-5v4h5v1h-5v5h-2z"/><path fill="#DB842D" d="m116 87 4 1a451 451 0 0 1-3.25 3.875l-1.828 2.18c-1.893 1.916-3.459 2.91-5.922 3.945v-3h3v-3h3z"/><path fill="#FDEACD" d="M121 85c1 2 1 2-.062 5.375-1.798 4.024-4.144 5.517-7.938 7.625l-2-1 1.426-1.355C115.85 92.319 118.789 89.292 121 85"/><path fill="#F7C6C1" d="m130 123 3 1v3l3 1v2h-4l1 2h-3z"/><path fill="#C7413C" d="M102 121h2v10l-4 1v-3h2z"/><path fill="#FDF3F4" d="M92 112h3c.125 5.75.125 5.75-1 8l-3-1c-.043-2-.04-4 0-6z"/><path fill="#842223" d="M90 80c7.667 5.966 7.667 5.966 9 11h-2c-1.727-1.898-1.727-1.898-3.625-4.375l-1.914-2.46C90 82 90 82 90 80"/><path fill="#FDF6F3" d="m135 118 3 4-1 2-7-1c1-3 1-3 3.063-4.187z"/><path fill="#DC812A" d="m111 79 2 1-4 7-2-1-3-1z"/><path fill="#FAECEF" d="M77 125h4v5l-5-1z"/><path fill="#FBEFF0" d="m110 112 5 1-1 4h-4z"/><path fill="#F9ECE8" d="M75 78c1.956 2.934 3.562 5.782 5 9l-1 2c-2.5-1.375-2.5-1.375-5-3v-2h2z"/><path fill="#A08287" d="M70 123h4v2h-2v7h-2z"/><path fill="#64141A" d="m102 67 2 3 5-1-1 5-5-1z"/><path fill="#7E3C3C" d="M102 71c2 2 2 2 2.195 4.383l-.07 2.742-.055 2.758L104 83l-3-1z"/><path fill="#FEF5F4" d="M91 125h3v8c-2-1-2-1-3-2-.04-2-.043-4 0-6"/><path fill="#C34A4C" d="m137 127 2 1-2 4c-2.437-.375-2.437-.375-5-1l-1-2 5 1z"/><path fill="#CB6160" d="m108 123 5 1v3h-5z"/><path fill="#DFD1D1" d="m134 117-1 4-5 1v-3c3-2 3-2 6-2"/><path fill="#F5F6F5" d="M84 104a105 105 0 0 1 5 4v2l-4-1v-2l-3-1z"/><path fill="#D68025" d="m101 98 6 1a91 91 0 0 1-4 4h-2z"/><path fill="#CB2F2B" d="M78 69h1v5h5v1h-8c.875-4.875.875-4.875 2-6"/><path fill="#7F1E1D" d="M81 89h4c2.175 2.874 3 4.364 3 8q-1.754-1.715-3.5-3.437l-1.969-1.934C81 90 81 90 81 89"/></svg>